#!OML:ASF F:\VICON\USERDATA\INSTALL\rory3\rory3.ASF
:FULLY-SPECIFIED
:DEGREES
1440
root 1.52993 9.79932 -4.97321 165.653 126.81 184.973
lowerback 28.6459 -1.29569 -3.59194
upperback 12.4193 -1.86871 -0.151444
thorax -1.71499 -0.762464 2.41877
lowerneck -14.3601 -11.8721 -17.5878
upperneck 10.0069 -13.8952 10.1522
head 7.34672 -6.6518 4.41879
rclavicle 8.02096e-014 -9.93923e-016
rhumerus -20.8686 28.1166 -85.547
rradius 93.9229
rwrist 41.7364
rhand -39.1088 11.6396
rfingers 7.12502
rthumb -12.1085 -17.9901
lclavicle 8.02096e-014 -9.93923e-016
lhumerus -22.212 -13.3024 86.036
lradius 87.7945
lwrist -30.2934
lhand -41.0532 29.1201
lfingers 7.12502
lthumb -13.9829 58.6298
rfemur -75.6153 -17.1964 16.8685
rtibia 109.58
rfoot -9.68794 5.66287
rtoes -4.00098
lfemur -74.0542 17.0433 -19.877
ltibia 106.656
lfoot -10.8315 -15.796
ltoes -5.3428
1441
root 1.53422 9.80228 -4.9729 165.78 126.886 185.02
lowerback 28.6955 -1.32322 -3.62949
upperback 12.493 -1.91094 -0.212366
thorax -1.65192 -0.783028 2.38544
lowerneck -14.5563 -11.9971 -17.526
upperneck 9.77673 -14.0522 10.295
head 7.33222 -6.70529 4.42542
rclavicle -3.81667e-014 8.34896e-015
rhumerus -20.7729 28.15 -85.6379
rradius 93.9699
rwrist 42.0523
rhand -39.2953 11.9465
rfingers 7.12502
rthumb -12.2884 -17.6725
lclavicle -3.81667e-014 8.34896e-015
lhumerus -22.1283 -13.0931 85.9934
lradius 87.8189
lwrist -30.7934
lhand -41.0039 28.7873
lfingers 7.12502
lthumb -13.9354 58.3003
rfemur -75.6938 -17.0064 16.8627
rtibia 109.574
rfoot -9.72798 5.53724
rtoes -4.85854
lfemur -74.1112 17.028 -19.9558
ltibia 106.656
lfoot -10.8223 -15.5507
ltoes -4.67868
1442
root 1.53945 9.80382 -4.97035 165.801 126.963 184.904
lowerback 28.7647 -1.36012 -3.59785
upperback 12.4824 -1.95375 -0.221735
thorax -1.69459 -0.802131 2.37127
lowerneck -14.6038 -12.0729 -17.5782
upperneck 9.57555 -14.1503 10.4633
head 7.30526 -6.73839 4.47256
rclavicle -1.0635e-014 3.8763e-014
rhumerus -20.901 28.1719 -85.7745
rradius 94.1035
rwrist 42.2994
rhand -39.3449 12.2267
rfingers 7.12502
rthumb -12.3362 -17.3894
lclavicle -1.0635e-014 3.8763e-014
lhumerus -22.323 -12.9103 86.0274
lradius 87.9955
lwrist -31.1319
lhand -41.0097 28.4904
lfingers 7.12502
lthumb -13.9409 58.003
rfemur -75.7974 -16.8476 16.9782
rtibia 109.567
rfoot -9.66747 5.4117
rtoes -4.27692
lfemur -74.2443 17.0501 -19.9455
ltibia 106.699
lfoot -10.8321 -15.3108
ltoes -3.92765
1443
root 1.54349 9.8028 -4.96703 165.857 127.006 184.826
lowerback 28.8408 -1.36991 -3.55827
upperback 12.4999 -1.95687 -0.240126
thorax -1.71188 -0.800434 2.33104
lowerneck -14.7499 -12.1988 -17.643
upperneck 9.46199 -14.3104 10.6841
head 7.33757 -6.79485 4.52297
rclavicle 6.5102e-014 -1.41137e-014
rhumerus -20.9261 28.0583 -85.8853
rradius 94.1677
rwrist 42.5615
rhand -39.4338 12.5302
rfingers 7.12502
rthumb -12.4219 -17.0807
lclavicle 6.5102e-014 -1.41137e-014
lhumerus -22.3854 -12.9186 86.017
lradius 88.1247
lwrist -31.4395
lhand -41.2065 28.1818
lfingers 7.12502
lthumb -14.1307 57.6813
rfemur -75.9581 -16.7376 17.1138
rtibia 109.559
rfoot -9.74847 5.17449
rtoes -5.56031
lfemur -74.3938 17.0492 -19.9435
ltibia 106.756
lfoot -10.9151 -15.1581
ltoes -3.93286
1444
root 1.54739 9.80445 -4.96336 165.896 127.075 184.678
lowerback 28.8821 -1.37886 -3.47225
upperback 12.4857 -1.9497 -0.255399
thorax -1.75219 -0.792469 2.26445
lowerneck -14.8878 -12.3066 -17.7265
upperneck 9.38136 -14.4515 10.9397
head 7.38166 -6.84074 4.59043
rclavicle 5.82439e-014 -3.04141e-014
rhumerus -21.0013 28.0557 -86.0258
rradius 94.2648
rwrist 42.7075
rhand -39.5601 12.4926
rfingers 7.12502
rthumb -12.5437 -17.1109
lclavicle 5.82439e-014 -3.04141e-014
lhumerus -22.3807 -12.9704 85.9518
lradius 88.1983
lwrist -31.8129
lhand -41.1659 28.0958
lfingers 7.12502
lthumb -14.0915 57.598
rfemur -76.1139 -16.557 17.2509
rtibia 109.534
rfoot -9.79668 5.01313
rtoes -5.60142
lfemur -74.5831 17.0191 -19.8607
ltibia 106.81
lfoot -11.0144 -15.0186
ltoes -4.36996
1445
root 1.54976 9.81002 -4.95961 165.848 127.186 184.443
lowerback 28.9417 -1.38437 -3.36237
upperback 12.4198 -1.93791 -0.269489
thorax -1.86067 -0.781116 2.18554
lowerneck -14.8443 -12.3499 -17.6544
upperneck 9.26068 -14.5443 11.0522
head 7.35267 -6.87525 4.60519
rclavicle -9.39258e-015 1.64991e-014
rhumerus -21.1815 28.0756 -86.22
rradius 94.3548
rwrist 42.6778
rhand -39.6859 12.5104
rfingers 7.12502
rthumb -12.665 -17.0856
lclavicle -9.39258e-015 1.64991e-014
lhumerus -22.5656 -13.0683 85.8426
lradius 88.3851
lwrist -32.0165
lhand -41.3132 28.0222
lfingers 7.12502
lthumb -14.2334 57.5145
rfemur -76.2278 -16.3157 17.4592
rtibia 109.489
rfoot -9.84861 4.83949
rtoes -5.70689
lfemur -74.7175 17.0429 -19.6719
ltibia 106.846
lfoot -11.0607 -14.9579
ltoes -4.60453
